<mxfile host="app.diagrams.net" modified="2024-04-14T03:08:52.351Z" agent="Mozilla/5.0 (Macintosh; Intel Mac OS X 10.15; rv:124.0) Gecko/20100101 Firefox/124.0" etag="Y22nCxJ9I0OHlilw_-a6" version="24.2.5" type="github">
  <diagram name="Page-1" id="5uWOatgtFNQUCl9EZlni">
    <mxGraphModel dx="2074" dy="1102" grid="1" gridSize="10" guides="1" tooltips="1" connect="1" arrows="1" fold="1" page="1" pageScale="1" pageWidth="850" pageHeight="1100" math="0" shadow="0">
      <root>
        <mxCell id="0" />
        <mxCell id="1" parent="0" />
        <mxCell id="UPAa6jQTwLhjjsWWlOEE-1" value="roleplayLLM architecture" style="text;html=1;align=center;verticalAlign=middle;whiteSpace=wrap;rounded=0;" parent="1" vertex="1">
          <mxGeometry x="10" y="10" width="80" height="30" as="geometry" />
        </mxCell>
      </root>
    </mxGraphModel>
  </diagram>
</mxfile>
